<mxfile host="65bd71144e">
    <diagram id="Tf9a92XZ6m2HhvBOyjuh" name="Page-1">
        <mxGraphModel dx="1302" dy="771" grid="1" gridSize="10" guides="1" tooltips="1" connect="1" arrows="1" fold="1" page="1" pageScale="1" pageWidth="827" pageHeight="1169" math="0" shadow="0">
            <root>
                <mxCell id="0"/>
                <mxCell id="1" parent="0"/>
                <mxCell id="pAs20QGtX5RAUOm5_R2k-2" value="rekurzivní sestup" style="ellipse;whiteSpace=wrap;html=1;" parent="1" vertex="1">
                    <mxGeometry x="370" y="290" width="120" height="80" as="geometry"/>
                </mxCell>
                <mxCell id="pAs20QGtX5RAUOm5_R2k-3" value="tabulka symbolů" style="ellipse;whiteSpace=wrap;html=1;" parent="1" vertex="1">
                    <mxGeometry x="360" y="90" width="120" height="80" as="geometry"/>
                </mxCell>
                <mxCell id="pAs20QGtX5RAUOm5_R2k-4" value="precedenční analyzátor" style="ellipse;whiteSpace=wrap;html=1;" parent="1" vertex="1">
                    <mxGeometry x="690" y="210" width="120" height="80" as="geometry"/>
                </mxCell>
                <mxCell id="pAs20QGtX5RAUOm5_R2k-5" value="&lt;span&gt;počátek&lt;/span&gt;" style="ellipse;whiteSpace=wrap;html=1;" parent="1" vertex="1">
                    <mxGeometry x="110" y="280" width="120" height="80" as="geometry"/>
                </mxCell>
                <mxCell id="pAs20QGtX5RAUOm5_R2k-6" value="generátor kódu" style="ellipse;whiteSpace=wrap;html=1;" parent="1" vertex="1">
                    <mxGeometry x="170" y="430" width="120" height="80" as="geometry"/>
                </mxCell>
                <mxCell id="pAs20QGtX5RAUOm5_R2k-7" value="lexikální analyzátor" style="ellipse;whiteSpace=wrap;html=1;" parent="1" vertex="1">
                    <mxGeometry x="550" y="450" width="120" height="80" as="geometry"/>
                </mxCell>
                <mxCell id="pAs20QGtX5RAUOm5_R2k-8" value="" style="curved=1;endArrow=classic;html=1;rounded=0;entryX=0.392;entryY=-0.025;entryDx=0;entryDy=0;entryPerimeter=0;exitX=0.333;exitY=1;exitDx=0;exitDy=0;exitPerimeter=0;" parent="1" source="pAs20QGtX5RAUOm5_R2k-3" target="pAs20QGtX5RAUOm5_R2k-2" edge="1">
                    <mxGeometry width="50" height="50" relative="1" as="geometry">
                        <mxPoint x="410" y="330" as="sourcePoint"/>
                        <mxPoint x="460" y="280" as="targetPoint"/>
                        <Array as="points">
                            <mxPoint x="380" y="220"/>
                            <mxPoint x="410" y="280"/>
                        </Array>
                    </mxGeometry>
                </mxCell>
                <mxCell id="pAs20QGtX5RAUOm5_R2k-9" value="" style="curved=1;endArrow=classic;html=1;rounded=0;entryX=0;entryY=0.5;entryDx=0;entryDy=0;exitX=1;exitY=0;exitDx=0;exitDy=0;" parent="1" source="pAs20QGtX5RAUOm5_R2k-2" target="pAs20QGtX5RAUOm5_R2k-4" edge="1">
                    <mxGeometry width="50" height="50" relative="1" as="geometry">
                        <mxPoint x="509.96000000000004" y="181" as="sourcePoint"/>
                        <mxPoint x="517.04" y="299" as="targetPoint"/>
                        <Array as="points">
                            <mxPoint x="480" y="240"/>
                        </Array>
                    </mxGeometry>
                </mxCell>
                <mxCell id="pAs20QGtX5RAUOm5_R2k-12" value="" style="curved=1;endArrow=classic;html=1;rounded=0;entryX=0.958;entryY=0.288;entryDx=0;entryDy=0;exitX=0.075;exitY=0.813;exitDx=0;exitDy=0;exitPerimeter=0;entryPerimeter=0;" parent="1" source="pAs20QGtX5RAUOm5_R2k-4" target="pAs20QGtX5RAUOm5_R2k-2" edge="1">
                    <mxGeometry width="50" height="50" relative="1" as="geometry">
                        <mxPoint x="458" y="298" as="sourcePoint"/>
                        <mxPoint x="665.04" y="237.03999999999996" as="targetPoint"/>
                        <Array as="points">
                            <mxPoint x="600" y="310"/>
                        </Array>
                    </mxGeometry>
                </mxCell>
                <mxCell id="pAs20QGtX5RAUOm5_R2k-15" value="" style="curved=1;endArrow=classic;html=1;rounded=0;entryX=0.308;entryY=0.025;entryDx=0;entryDy=0;exitX=1;exitY=0.338;exitDx=0;exitDy=0;entryPerimeter=0;exitPerimeter=0;" parent="1" source="pAs20QGtX5RAUOm5_R2k-3" target="pAs20QGtX5RAUOm5_R2k-4" edge="1">
                    <mxGeometry width="50" height="50" relative="1" as="geometry">
                        <mxPoint x="450" y="180" as="sourcePoint"/>
                        <mxPoint x="449.96000000000004" y="299.03999999999996" as="targetPoint"/>
                        <Array as="points">
                            <mxPoint x="600" y="100"/>
                        </Array>
                    </mxGeometry>
                </mxCell>
                <mxCell id="pAs20QGtX5RAUOm5_R2k-16" value="" style="curved=1;endArrow=classic;html=1;rounded=0;entryX=1;entryY=0.5;entryDx=0;entryDy=0;exitX=0;exitY=0;exitDx=0;exitDy=0;" parent="1" source="pAs20QGtX5RAUOm5_R2k-4" target="pAs20QGtX5RAUOm5_R2k-3" edge="1">
                    <mxGeometry width="50" height="50" relative="1" as="geometry">
                        <mxPoint x="429.96000000000004" y="180" as="sourcePoint"/>
                        <mxPoint x="427.03999999999996" y="298" as="targetPoint"/>
                        <Array as="points">
                            <mxPoint x="550" y="210"/>
                        </Array>
                    </mxGeometry>
                </mxCell>
                <mxCell id="pAs20QGtX5RAUOm5_R2k-17" value="" style="curved=1;endArrow=classic;html=1;rounded=0;entryX=1;entryY=0;entryDx=0;entryDy=0;exitX=0.558;exitY=1.025;exitDx=0;exitDy=0;exitPerimeter=0;" parent="1" source="pAs20QGtX5RAUOm5_R2k-4" target="pAs20QGtX5RAUOm5_R2k-7" edge="1">
                    <mxGeometry width="50" height="50" relative="1" as="geometry">
                        <mxPoint x="669" y="275.03999999999996" as="sourcePoint"/>
                        <mxPoint x="494.96000000000004" y="323.03999999999996" as="targetPoint"/>
                        <Array as="points">
                            <mxPoint x="730" y="370"/>
                        </Array>
                    </mxGeometry>
                </mxCell>
                <mxCell id="pAs20QGtX5RAUOm5_R2k-18" value="" style="curved=1;endArrow=classic;html=1;rounded=0;entryX=0.383;entryY=0.988;entryDx=0;entryDy=0;exitX=0.6;exitY=0.013;exitDx=0;exitDy=0;entryPerimeter=0;exitPerimeter=0;" parent="1" source="pAs20QGtX5RAUOm5_R2k-7" target="pAs20QGtX5RAUOm5_R2k-4" edge="1">
                    <mxGeometry width="50" height="50" relative="1" as="geometry">
                        <mxPoint x="482.42640687119274" y="311.7157287525382" as="sourcePoint"/>
                        <mxPoint x="660" y="250" as="targetPoint"/>
                        <Array as="points">
                            <mxPoint x="600" y="320"/>
                        </Array>
                    </mxGeometry>
                </mxCell>
                <mxCell id="pAs20QGtX5RAUOm5_R2k-19" value="" style="curved=1;endArrow=classic;html=1;rounded=0;entryX=0;entryY=0.5;entryDx=0;entryDy=0;exitX=0.667;exitY=1.013;exitDx=0;exitDy=0;exitPerimeter=0;" parent="1" source="pAs20QGtX5RAUOm5_R2k-2" target="pAs20QGtX5RAUOm5_R2k-7" edge="1">
                    <mxGeometry width="50" height="50" relative="1" as="geometry">
                        <mxPoint x="490.00000000000006" y="380" as="sourcePoint"/>
                        <mxPoint x="487.08" y="498" as="targetPoint"/>
                        <Array as="points">
                            <mxPoint x="450" y="420"/>
                            <mxPoint x="490" y="480"/>
                        </Array>
                    </mxGeometry>
                </mxCell>
                <mxCell id="pAs20QGtX5RAUOm5_R2k-21" value="" style="curved=1;endArrow=classic;html=1;rounded=0;entryX=1;entryY=1;entryDx=0;entryDy=0;exitX=0;exitY=0;exitDx=0;exitDy=0;" parent="1" source="pAs20QGtX5RAUOm5_R2k-7" target="pAs20QGtX5RAUOm5_R2k-2" edge="1">
                    <mxGeometry width="50" height="50" relative="1" as="geometry">
                        <mxPoint x="632" y="461.03999999999996" as="sourcePoint"/>
                        <mxPoint x="705.96" y="289.03999999999996" as="targetPoint"/>
                        <Array as="points">
                            <mxPoint x="550" y="390"/>
                        </Array>
                    </mxGeometry>
                </mxCell>
                <mxCell id="pAs20QGtX5RAUOm5_R2k-22" value="" style="curved=1;endArrow=classic;html=1;rounded=0;exitX=0.042;exitY=0.763;exitDx=0;exitDy=0;exitPerimeter=0;" parent="1" source="pAs20QGtX5RAUOm5_R2k-2" target="pAs20QGtX5RAUOm5_R2k-6" edge="1">
                    <mxGeometry width="50" height="50" relative="1" as="geometry">
                        <mxPoint x="319.96000000000004" y="350" as="sourcePoint"/>
                        <mxPoint x="317.03999999999996" y="468" as="targetPoint"/>
                        <Array as="points">
                            <mxPoint x="330" y="370"/>
                            <mxPoint x="310" y="390"/>
                        </Array>
                    </mxGeometry>
                </mxCell>
                <mxCell id="pAs20QGtX5RAUOm5_R2k-23" value="" style="curved=1;endArrow=classic;html=1;rounded=0;entryX=0.083;entryY=0.263;entryDx=0;entryDy=0;exitX=1;exitY=0.5;exitDx=0;exitDy=0;entryPerimeter=0;" parent="1" source="pAs20QGtX5RAUOm5_R2k-5" target="pAs20QGtX5RAUOm5_R2k-2" edge="1">
                    <mxGeometry width="50" height="50" relative="1" as="geometry">
                        <mxPoint x="270" y="220" as="sourcePoint"/>
                        <mxPoint x="269.96000000000004" y="339.03999999999996" as="targetPoint"/>
                        <Array as="points">
                            <mxPoint x="310" y="280"/>
                        </Array>
                    </mxGeometry>
                </mxCell>
                <mxCell id="pAs20QGtX5RAUOm5_R2k-24" value="" style="curved=1;endArrow=classic;html=1;rounded=0;entryX=0.5;entryY=1;entryDx=0;entryDy=0;exitX=0.625;exitY=0.038;exitDx=0;exitDy=0;exitPerimeter=0;" parent="1" source="pAs20QGtX5RAUOm5_R2k-2" target="pAs20QGtX5RAUOm5_R2k-3" edge="1">
                    <mxGeometry width="50" height="50" relative="1" as="geometry">
                        <mxPoint x="535.1435931288073" y="289.99572875253807" as="sourcePoint"/>
                        <mxPoint x="439.99640687119273" y="186.5642712474618" as="targetPoint"/>
                        <Array as="points">
                            <mxPoint x="480" y="220"/>
                        </Array>
                    </mxGeometry>
                </mxCell>
                <mxCell id="pAs20QGtX5RAUOm5_R2k-29" value="&lt;b&gt;1&lt;/b&gt;" style="text;html=1;strokeColor=none;fillColor=none;align=center;verticalAlign=middle;whiteSpace=wrap;rounded=0;" parent="1" vertex="1">
                    <mxGeometry x="420" y="420" width="60" height="30" as="geometry"/>
                </mxCell>
                <mxCell id="2" value="&lt;b&gt;1&lt;/b&gt;" style="text;html=1;strokeColor=none;fillColor=none;align=center;verticalAlign=middle;whiteSpace=wrap;rounded=0;" parent="1" vertex="1">
                    <mxGeometry x="700" y="360" width="60" height="30" as="geometry"/>
                </mxCell>
                <mxCell id="3" value="&lt;b&gt;2&lt;/b&gt;" style="text;html=1;strokeColor=none;fillColor=none;align=center;verticalAlign=middle;whiteSpace=wrap;rounded=0;" parent="1" vertex="1">
                    <mxGeometry x="510" y="370" width="60" height="30" as="geometry"/>
                </mxCell>
                <mxCell id="4" value="&lt;b&gt;2&lt;/b&gt;" style="text;html=1;strokeColor=none;fillColor=none;align=center;verticalAlign=middle;whiteSpace=wrap;rounded=0;" parent="1" vertex="1">
                    <mxGeometry x="610" y="350" width="60" height="30" as="geometry"/>
                </mxCell>
                <mxCell id="5" value="1) přečti lexikální token&lt;br style=&quot;font-size: 19px&quot;&gt;2) vrací lexikální token&lt;br style=&quot;font-size: 19px&quot;&gt;3) definuj proměnnou&lt;br style=&quot;font-size: 19px&quot;&gt;4) vracím informaci o proměnné&lt;br style=&quot;font-size: 19px&quot;&gt;5) vyhledej proměnnou&lt;br style=&quot;font-size: 19px&quot;&gt;6) zpracuj výraz&lt;br style=&quot;font-size: 19px&quot;&gt;7) výraz zpracován&lt;br style=&quot;font-size: 19px&quot;&gt;8) vytiskni instrukce" style="text;html=1;align=left;verticalAlign=middle;resizable=0;points=[];autosize=1;strokeColor=none;fontSize=19;" parent="1" vertex="1">
                    <mxGeometry x="40" y="30" width="280" height="190" as="geometry"/>
                </mxCell>
                <mxCell id="7" value="&lt;b&gt;3/5&lt;/b&gt;" style="text;html=1;strokeColor=none;fillColor=none;align=center;verticalAlign=middle;whiteSpace=wrap;rounded=0;" parent="1" vertex="1">
                    <mxGeometry x="440" y="210" width="60" height="30" as="geometry"/>
                </mxCell>
                <mxCell id="8" value="4&lt;br&gt;" style="text;html=1;align=center;verticalAlign=middle;resizable=0;points=[];autosize=1;strokeColor=none;" parent="1" vertex="1">
                    <mxGeometry x="370" y="230" width="20" height="20" as="geometry"/>
                </mxCell>
                <mxCell id="11" value="4&lt;br&gt;" style="text;html=1;align=center;verticalAlign=middle;resizable=0;points=[];autosize=1;strokeColor=none;" parent="1" vertex="1">
                    <mxGeometry x="600" y="110" width="20" height="20" as="geometry"/>
                </mxCell>
                <mxCell id="12" value="5" style="text;html=1;align=center;verticalAlign=middle;resizable=0;points=[];autosize=1;strokeColor=none;" parent="1" vertex="1">
                    <mxGeometry x="570" y="170" width="20" height="20" as="geometry"/>
                </mxCell>
                <mxCell id="13" value="6" style="text;html=1;align=center;verticalAlign=middle;resizable=0;points=[];autosize=1;strokeColor=none;" parent="1" vertex="1">
                    <mxGeometry x="550" y="250" width="20" height="20" as="geometry"/>
                </mxCell>
                <mxCell id="14" value="7" style="text;html=1;align=center;verticalAlign=middle;resizable=0;points=[];autosize=1;strokeColor=none;" parent="1" vertex="1">
                    <mxGeometry x="580" y="310" width="20" height="20" as="geometry"/>
                </mxCell>
                <mxCell id="15" value="8" style="text;html=1;align=center;verticalAlign=middle;resizable=0;points=[];autosize=1;strokeColor=none;" parent="1" vertex="1">
                    <mxGeometry x="320" y="380" width="20" height="20" as="geometry"/>
                </mxCell>
            </root>
        </mxGraphModel>
    </diagram>
</mxfile>